<svg version="1.2" xmlns="http://www.w3.org/2000/svg" viewBox="0 0 176 28" width="176" height="28"><style>.a{fill:#0063d1}.b{fill:#333e48}</style><path class="a" d="m116.3 17.6c2.8 0 5.2 2.4 5.2 5.2 0 2.9-2.4 5.2-5.2 5.2-2.8 0-5.1-2.3-5.1-5.2 0-2.8 2.3-5.2 5.1-5.2z"/><path class="b" d="m112 0h0.3l4.7 4.8v1.4l-4-4.2v9h-1zm9.9 11h-0.9v-9l-4 4.2v-1.4l4.6-4.8h0.3zm1.4 0l9.4-11h0.3v11h-1v-8.9l-7.6 8.9zm3.1-3.1h4.4v0.8h-4.4zm9.4-7.8q2.6 0 5.1 0c2.3 0.3 4 1.7 4.1 4 0.1 2.1-1.4 3.9-3.4 4.3 0.9 0.9 2.8 2.6 2.8 2.6h-1.2c0 0-0.5-0.4-0.7-0.6-0.6-0.5-0.9-0.7-1.4-1.2-0.2-0.3-0.7-0.7-0.7-0.7 0 0 0-0.4 0-0.7 2-0.1 3.3-1.3 3.6-2.9 0.4-2.1-1.2-3.8-3.2-4-0.7 0-4 0-4 0v10.1h-1c0 0 0-7.3 0-10.9zm10.9 0h0.9v5.7l6-5.5h1.3l-7.3 6.8v3.9h-0.9zm2.9 6.6l0.7-0.7 5.4 5h-1.3zm7.8-6.5h1v10.9h-1zm0.9 10.1h6.7v0.9h-6.7zm1.4-5.4h3.5v0.8h-3.5zm-1.4-4.7h6.6v0.8h-6.6zm7.9 0h3.5v0.8h-3.5zm4.4 0h5.4v0.9h-5.4zm0 0.8h1v10.1h-1z"/><path fill-rule="evenodd" class="b" d="m0 0.4h7.2v5.2h-7.2zm9.5 0h15.4v5.1h-9.5v22h-5.9zm19.1 0h19.4v5h-13.5v17.3h13.7v4.8h-19.6zm8.8 10.7h7.6v5h-7.6zm27.7-11.1c4.4 0 8.2 1.3 10.9 4.1-0.9 0.8-3.9 3.7-3.9 3.7-1.6-1.7-3.9-2.7-6.4-2.7-4.9 0-8.9 4-8.9 9 0 4.9 4 8.9 8.9 8.9 2.5 0 4.8-1 6.4-2.6 0 0 2.8 2.8 3.5 3.5-2.6 2.6-6.4 4.1-10.5 4.1-7.8 0-14.2-6.1-14.2-13.9 0-7.8 6.4-14.1 14.2-14.1zm14.8 0.4h6v16.4h10.4v5h-10.4v5.7h-6zm19.2 0h5.9v27.1h-5.9z"/></svg>