<svg version="1.2" xmlns="http://www.w3.org/2000/svg" viewBox="0 0 18 18" width="18" height="18"><style>.a{fill:#fff}</style><path fill-rule="evenodd" class="a" d="m7.1 16.2c0 1-0.8 1.8-1.7 1.8-1 0-1.8-0.8-1.8-1.8 0-1 0.8-1.8 1.8-1.8 0.9 0 1.7 0.8 1.7 1.8zm9 0c0 1-0.8 1.8-1.8 1.8-1 0-1.8-0.8-1.8-1.8 0-1 0.8-1.8 1.8-1.8 1 0 1.8 0.8 1.8 1.8zm-10.4-4.5h10.4v1.8h-1.1v0.5h-9v-0.5h-0.6c-1 0-1.8-0.8-1.8-1.8q0-0.5 0.2-0.9l1.2-2.2-3.2-6.8h-1.8v-1.8h2.9l0.9 1.8 0.2 0.5v-0.3h12v0.6l0.4-0.8 1.6 0.9-3.4 6.3c-0.4 0.5-0.9 0.9-1.6 0.9h-6.7l-0.8 1.5v0.1c0 0.1 0.1 0.2 0.2 0.2zm0.9-3.8l0.1 0.2h6.3l2.2-4.1h-10.4z"/></svg>